<?xml version="1.0" encoding="UTF-8"?> <svg xmlns="http://www.w3.org/2000/svg" xmlns:xlink="http://www.w3.org/1999/xlink" width="123px" height="100px" viewBox="0 0 123 100" version="1.1"><!-- Generator: Sketch 63.1 (92452) - https://sketch.com --><title>Group 49</title><desc>Created with Sketch.</desc><defs><polygon id="path-1" points="0 0.290924014 44.7134988 0.290924014 44.7134988 31.9256729 0 31.9256729"></polygon><polygon id="path-3" points="0.127390462 0 2.09624385 0 2.09624385 9.2779105 0.127390462 9.2779105"></polygon></defs><g id="Page-1" stroke="none" stroke-width="1" fill="none" fill-rule="evenodd"><g id="Group-49"><g id="Group-3" transform="translate(0.000000, 22.694263)"><mask id="mask-2" fill="white"><use xlink:href="#path-1"></use></mask><g id="Clip-2"></g><path d="M34.5776161,30.1996101 C34.0644631,31.4777818 32.396049,31.9256729 30.7285242,31.9256729 C28.8039783,31.9256729 27.0083876,31.2874723 26.6224112,30.1996101 L22.3891216,19.0793395 L18.1549427,30.1996101 C17.7707449,31.2874723 15.9093426,31.9256729 13.9847967,31.9256729 C12.3813048,31.9256729 10.7137801,31.4777818 10.1997377,30.1996101 L0.320876236,5.59569053 C0.0638550825,4.95571953 -0.000177869311,4.63617661 -0.000177869311,4.2537873 C-0.000177869311,1.95237016 3.97697991,0.290924014 6.54452341,0.290924014 C7.82607179,0.290924014 8.91641067,0.737930036 9.30149772,1.82402189 L15.0119919,18.0569792 L19.1172156,4.31663369 C19.6294792,2.591456 20.9136957,2.40026134 22.3891216,2.40026134 C23.8005146,2.40026134 25.1469853,2.591456 25.6619169,4.31663369 L29.7662512,18.0569792 L35.4758561,1.82402189 C35.7960209,0.866278299 36.8223268,0.290924014 38.1705762,0.290924014 C40.6082751,0.290924014 44.7134988,1.95237016 44.7134988,4.3812504 C44.7134988,4.76452487 44.6494658,5.2115309 44.4564776,5.59569053 L34.5776161,30.1996101 Z" id="Fill-1" fill="#FFFFFF" mask="url(#mask-2)"></path></g><path d="M62.9070315,35.3504576 C63.8115309,35.3504576 64.2637806,35.0284625 64.2637806,33.8013036 C64.2637806,31.2181877 61.9380529,29.9266297 59.547846,29.9266297 C57.2221183,29.9266297 54.8972861,31.2181877 54.8972861,33.8013036 L54.8972861,35.3504576 L62.9070315,35.3504576 Z M73.6302752,34.9631691 C73.6302752,40.7107809 70.3355688,40.9683769 67.3650494,40.9683769 L54.8972861,40.9683769 L54.8972861,41.3574543 C54.8972861,44.5219502 57.5454097,46.6524842 61.4858032,46.6524842 C65.4906759,46.6524842 67.4286331,44.2634597 69.5600278,44.2634597 C71.8857555,44.2634597 73.2434002,47.1041717 73.2434002,48.6542201 C73.2434002,51.1076436 68.52657,54.4662309 61.226991,54.4662309 C51.667059,54.4662309 44.8842088,48.9771096 44.8842088,40.7751799 L44.8842088,36.06153 C44.8842088,28.8282688 51.4727259,22.6942629 59.7412835,22.6942629 C67.1698209,22.6942629 73.6302752,27.6655088 73.6302752,34.9631691 L73.6302752,34.9631691 Z" id="Fill-4" fill="#FFFFFF"></path><path d="M91.1452995,44.9086133 C91.1452995,40.4535793 76.046641,43.4874029 76.046641,32.6382637 C76.046641,27.8594549 79.0144934,22.6942629 88.1774471,22.6942629 C93.7911426,22.6942629 99.1445473,24.6315453 99.1445473,27.3433829 C99.1445473,28.6357989 97.8556156,32.0577945 95.5317818,32.0577945 C93.7911426,32.0577945 91.7902126,30.1205121 88.3053563,30.1205121 C85.7239151,30.1205121 84.6290834,31.2179477 84.6290834,32.1865889 C84.6290834,35.8026705 99.8547567,33.1552301 99.8547567,44.5213357 C99.8547567,50.5916661 95.4682744,54.4662309 87.4019413,54.4662309 C80.6272234,54.4662309 75.143226,51.6891017 75.143226,48.5246949 C75.143226,46.9755845 76.4348411,44.1331637 78.4348767,44.1331637 C80.4993141,44.1331637 81.9832403,47.0399817 87.1434394,47.0399817 C90.5647883,47.0399817 91.1452995,45.8128573 91.1452995,44.9086133" id="Fill-6" fill="#FFFFFF"></path><path d="M112.844037,43.0878062 C112.844037,44.9540779 113.487353,45.5975584 115.479672,45.5975584 L118.243614,45.5975584 C121.135863,45.5975584 122.483975,47.7205094 122.483975,49.7801818 C122.483975,51.9040241 121.135863,53.961914 118.243614,53.961914 L115.479672,53.961914 C107.316153,53.961914 102.880658,50.6812328 102.880658,43.0878062 L102.880658,18.6578275 C102.880658,16.8557255 105.516294,15.6338255 107.831162,15.6338255 C110.337599,15.6338255 112.844037,16.8557255 112.844037,18.6578275 L112.844037,23.3324194 L120.105845,23.3324194 C121.714134,23.3324194 122.54902,25.1345213 122.54902,26.8724535 C122.54902,28.6736642 121.714134,30.4107051 120.105845,30.4107051 L112.844037,30.4107051 L112.844037,43.0878062 Z" id="Fill-8" fill="#FFFFFF"></path><path d="M33.7892359,96.2799291 C47.8197427,96.9772157 58.159985,89.6414391 68.2197959,81.6663344 C73.8480743,77.2053048 79.3638229,72.5953661 85.786955,69.1811582 C94.974213,64.2965849 104.61427,63.3068302 115.488582,66.0754684 C101.824244,67.3371827 92.4547948,75.1000697 82.8638583,82.4617048 C77.416878,86.6436414 72.1610197,91.1171544 66.1129872,94.4716204 C55.708442,100.243406 44.9520178,102.159607 33.7892359,96.2799291" id="Fill-10" fill="#0078BB"></path><path d="M19.6683612,80.4734645 C30.0006867,82.821656 39.1123006,79.5523951 48.0445554,75.2969115 C53.1549474,72.8630391 58.1885987,70.2337072 63.7085716,68.7155491 C68.097066,67.5088768 72.4935914,67.0001465 77.1604938,68.5191971 C74.0507128,70.5353752 71.1176137,72.3846542 68.244301,74.3142589 C63.6443236,77.399663 59.1380412,80.618051 54.4916624,83.6320543 C50.5100719,86.2149758 46.2634584,88.2847045 41.5858481,89.5217221 C33.681561,91.6137635 27.261224,89.2379042 21.8679624,83.605279 C21.0505852,82.7520403 20.0217251,81.9657398 19.6683612,80.4734645" id="Fill-12" fill="#259F97"></path><path d="M51.4403292,68.8795922 C42.9853221,73.1394194 34.1562703,75.8145207 24.4532655,74.1272435 C17.1788926,72.862443 12.8117871,67.6358279 12.6079238,60.0137174 C24.4878337,67.4684149 37.8275817,68.5140886 51.4403292,68.8795922" id="Fill-14" fill="#95BA15"></path><path d="M3.58611274,4.15948309 C3.58611274,3.31382414 3.18130417,2.919968 2.51650349,2.919968 C1.84238712,2.919968 1.45620991,3.31382414 1.45620991,4.15948309 L1.45620991,6.95450362 C1.45620991,7.64714719 1.7170489,8.03013834 2.20231106,8.13697748 L2.20231106,7.55026763 C2.20231106,7.31938644 2.35474943,7.22431772 2.51650349,7.22431772 C2.67825754,7.22431772 2.84001159,7.31938644 2.84001159,7.55026763 L2.84001159,8.1270179 C3.30748927,8.02108418 3.58611274,7.64714719 3.58611274,6.95450362 L3.58611274,4.15948309 Z M2.20231106,9.75042957 L2.20231106,9.07861057 C1.22247107,8.98173101 0.504316953,8.37600742 0.504316953,6.95450362 L0.504316953,4.15948309 C0.504316953,2.59401808 1.37575632,2.01726781 2.51650349,2.01726781 C3.64878185,2.01726781 4.53885258,2.59401808 4.53885258,4.15948309 L4.53885258,6.95450362 C4.53885258,8.36695326 3.8105359,8.98173101 2.84001159,9.07861057 L2.84001159,9.75042957 C2.84001159,9.97135118 2.67825754,10.0863391 2.51650349,10.0863391 C2.35474943,10.0863391 2.20231106,9.97135118 2.20231106,9.75042957 L2.20231106,9.75042957 Z" id="Fill-16" fill="#FFFFFF"></path><path d="M11.167568,2.3423423 C11.167568,2.11208121 11.3972095,2.01726781 11.6351714,2.01726781 C11.864813,2.01726781 12.1036069,2.11208121 12.1036069,2.3423423 L12.1036069,6.94124336 C12.1036069,8.49347406 11.2208182,9.07770516 10.0817629,9.07770516 C8.95185993,9.07770516 8.06907125,8.49347406 8.06907125,6.94124336 L8.06907125,2.3423423 C8.06907125,2.11208121 8.29871279,2.01726781 8.53667468,2.01726781 C8.76631622,2.01726781 9.00427811,2.11208121 9.00427811,2.3423423 L9.00427811,6.94124336 C9.00427811,7.78463107 9.41114301,8.17742941 10.0817629,8.17742941 C10.7615351,8.17742941 11.167568,7.78463107 11.167568,6.94124336 L11.167568,2.3423423 Z" id="Fill-18" fill="#FFFFFF"></path><g id="Group-22" transform="translate(15.633826, 0.000000)"><mask id="mask-4" fill="white"><use xlink:href="#path-3"></use></mask><g id="Clip-21"></g><path d="M0.491507303,2.51317711 C0.491507303,2.27994199 0.780985234,2.18390399 1.05835956,2.18390399 C1.34783749,2.18390399 1.62622045,2.27994199 1.62622045,2.51317711 L1.62622045,8.93766161 C1.62622045,9.16175026 1.34783749,9.2779105 1.05835956,9.2779105 C0.780985234,9.2779105 0.491507303,9.16175026 0.491507303,8.93766161 L0.491507303,2.51317711 Z M0.630698782,1.25187812 C0.588336158,1.27108572 0.5449649,1.2802322 0.501593642,1.2802322 C0.287763253,1.2802322 0.127390462,1.06711931 0.127390462,0.883275153 C0.127390462,0.776261388 0.17076172,0.68936987 0.287763253,0.629917778 L1.61411684,0.0189332046 C1.65647946,0.00978672895 1.69985072,-0.00027439427 1.73111837,-0.00027439427 C1.9459574,-0.00027439427 2.09624385,0.212838488 2.09624385,0.397597296 C2.09624385,0.504611062 2.05388122,0.611624827 1.92578472,0.660101148 L0.630698782,1.25187812 Z" id="Fill-20" fill="#FFFFFF" mask="url(#mask-4)"></path></g><path d="M23.5402139,6.49877027 C23.4400355,6.67264128 23.3116016,6.73090172 23.1857365,6.73090172 C23.0667211,6.73090172 22.9399997,6.67264128 22.857802,6.49877027 L21.640249,4.04545946 L21.640249,8.73997666 C21.640249,8.96209459 21.4047869,9.07770516 21.1599064,9.07770516 C20.9227319,9.07770516 20.6769951,8.96209459 20.6769951,8.73997666 L20.6769951,2.52977764 C20.6769951,2.1529054 20.9141696,2.01726781 21.1599064,2.01726781 C21.5049654,2.01726781 21.6959037,2.14289189 21.9219473,2.59714128 L23.1951549,5.15604914 L24.4854871,2.59714128 C24.7115307,2.14289189 24.8939068,2.01726781 25.2381095,2.01726781 C25.4924086,2.01726781 25.7201646,2.1529054 25.7201646,2.52977764 L25.7201646,8.73997666 C25.7201646,8.96209459 25.4847025,9.07770516 25.2381095,9.07770516 C25.0026474,9.07770516 24.7569107,8.96209459 24.7569107,8.73997666 L24.7569107,4.1037199 L23.5402139,6.49877027 Z" id="Fill-23" fill="#FFFFFF"></path><path d="M29.2503833,2.3449828 C29.2503833,2.11285135 29.5068004,2.01726781 29.754252,2.01726781 C30.0115657,2.01726781 30.2590172,2.11285135 30.2590172,2.3449828 L30.2590172,8.73906634 C30.2590172,8.96209459 30.0115657,9.07770516 29.754252,9.07770516 C29.5068004,9.07770516 29.2503833,8.96209459 29.2503833,8.73906634 L29.2503833,2.3449828 Z" id="Fill-25" fill="#FFFFFF"></path><path d="M35.8204801,2.91754356 C35.128434,2.91754356 34.7421757,3.31124488 34.7421757,4.1537296 L34.7421757,6.94124336 C34.7421757,7.78553406 35.128434,8.17742941 35.8382683,8.17742941 C36.7556318,8.17742941 36.8352552,7.51644462 36.8708316,7.09475076 C36.8894669,6.84642997 37.0775137,6.75974344 37.3392545,6.75974344 C37.6721482,6.75974344 37.8237715,6.86448966 37.8237715,7.2870865 C37.8237715,8.34086964 37.0055138,9.07770516 35.774739,9.07770516 C34.687117,9.07770516 33.7892359,8.49347406 33.7892359,6.94124336 L33.7892359,4.1537296 C33.7892359,2.60059593 34.6964346,2.01726781 35.7849037,2.01726781 C37.0148314,2.01726781 37.8237715,2.73604363 37.8237715,3.75099843 C37.8237715,4.18172213 37.6721482,4.27834149 37.3485721,4.27834149 C37.0605725,4.27834149 36.8809963,4.17269228 36.8708316,3.94333417 C36.8538905,3.60742386 36.7463141,2.91754356 35.8204801,2.91754356" id="Fill-27" fill="#FFFFFF"></path><path d="M44.3106893,6.69232466 L43.3672604,3.40588068 L42.4247198,6.69232466 L44.3106893,6.69232466 Z M40.8496732,8.65606523 C40.8496732,8.62717341 40.8496732,8.5982816 40.8594451,8.56938978 L42.7365311,2.36216386 C42.8120409,2.1319322 43.0847647,2.01726781 43.3672604,2.01726781 C43.6506444,2.01726781 43.9322517,2.1319322 44.0077616,2.36216386 L45.8750757,8.56938978 C45.8839592,8.5982816 45.8928427,8.62717341 45.8928427,8.65606523 C45.8928427,8.89532557 45.5454974,9.07770516 45.2612251,9.07770516 C45.1022102,9.07770516 44.9689575,9.01992153 44.9218749,8.86643376 L44.5363305,7.50580983 L42.2088505,7.50580983 L41.8215294,8.86643376 C41.7753351,9.01992153 41.6429708,9.07770516 41.4732957,9.07770516 C41.2005719,9.07770516 40.8496732,8.90435426 40.8496732,8.65606523 L40.8496732,8.65606523 Z" id="Fill-29" fill="#FFFFFF"></path><path d="M54.3977073,2.92485626 L54.3977073,5.54293489 L55.4974275,5.54293489 C56.1542512,5.54293489 56.552858,5.13693243 56.552858,4.2866941 L56.552858,4.17108354 C56.552858,3.32175553 56.1542512,2.92485626 55.4974275,2.92485626 L54.3977073,2.92485626 Z M53.457597,2.3449828 C53.457597,2.17202211 53.5996581,2.01726781 53.8227777,2.01726781 L55.5500737,2.01726781 C56.6422729,2.01726781 57.4921327,2.58712776 57.4921327,4.14195332 L57.4921327,4.21933047 C57.4921327,5.7641425 56.6146964,6.35402948 55.4974275,6.35402948 L54.3977073,6.35402948 L54.3977073,8.73997666 C54.3977073,8.96209459 54.1679026,9.07770516 53.92807,9.07770516 C53.6974296,9.07770516 53.457597,8.96209459 53.457597,8.73997666 L53.457597,2.3449828 Z" id="Fill-31" fill="#FFFFFF"></path><path d="M63.6000301,4.1537296 C63.6000301,3.3103419 63.1944598,2.91754356 62.5297986,2.91754356 C61.8566704,2.91754356 61.4697276,3.3103419 61.4697276,4.1537296 L61.4697276,6.94124336 C61.4697276,7.78463107 61.8566704,8.17742941 62.5297986,8.17742941 C63.1944598,8.17742941 63.6000301,7.78463107 63.6000301,6.94124336 L63.6000301,4.1537296 Z M60.5180344,6.94124336 L60.5180344,4.1537296 C60.5180344,2.60059593 61.3901376,2.01726781 62.5297986,2.01726781 C63.6618394,2.01726781 64.55257,2.60059593 64.55257,4.1537296 L64.55257,6.94124336 C64.55257,8.49347406 63.6618394,9.07770516 62.5297986,9.07770516 C61.3901376,9.07770516 60.5180344,8.49347406 60.5180344,6.94124336 L60.5180344,6.94124336 Z" id="Fill-33" fill="#FFFFFF"></path><path d="M69.0075773,2.92112709 L69.0075773,5.21023909 L70.0635298,5.21023909 C70.7243303,5.21023909 71.1568392,4.90290881 71.1568392,4.06613638 C71.1568392,3.22936395 70.7243303,2.92112709 70.0635298,2.92112709 L69.0075773,2.92112709 Z M68.0827887,2.34363626 C68.0827887,2.17138624 68.2048209,2.01726781 68.3907748,2.01726781 L70.0635298,2.01726781 C71.1734422,2.01726781 72.0899293,2.48778232 72.0899293,3.97910479 C72.0899293,5.12411409 71.5519912,5.69163255 70.8480229,5.88473388 L72.0807976,8.41408932 C72.1073625,8.46123143 72.1173243,8.51925248 72.1173243,8.55823538 C72.1173243,8.81751698 71.8168095,9.07770516 71.5519912,9.07770516 C71.3942625,9.07770516 71.2714001,8.96166304 71.183404,8.77944066 L69.8958392,6.02797336 L69.0075773,6.02797336 L69.0075773,8.71235381 C69.0075773,8.93355909 68.7784555,9.04869463 68.5410322,9.04869463 C68.3110803,9.04869463 68.0827887,8.93355909 68.0827887,8.71235381 L68.0827887,2.34363626 Z" id="Fill-35" fill="#FFFFFF"></path><path d="M80.1586963,9.07770516 C79.9256408,9.07770516 79.6820786,8.96209459 79.6820786,8.73997666 L79.6820786,2.3449828 C79.6820786,2.11376167 79.9562054,2.01726781 80.2198256,2.01726781 C80.4929973,2.01726781 80.7566176,2.11376167 80.7566176,2.3449828 L80.7566176,8.1701167 L83.3918647,8.1701167 C83.6048622,8.1701167 83.7166142,8.39223464 83.7166142,8.62345577 C83.7166142,8.84557371 83.6048622,9.07770516 83.3918647,9.07770516 L80.1586963,9.07770516 Z" id="Fill-37" fill="#FFFFFF"></path><path d="M89.6983267,6.69232466 L88.7548978,3.40588068 L87.8132456,6.69232466 L89.6983267,6.69232466 Z M86.238199,8.65606523 C86.238199,8.62717341 86.238199,8.5982816 86.2479708,8.56938978 L88.1250568,2.36216386 C88.1996783,2.1319322 88.4732905,2.01726781 88.7548978,2.01726781 C89.0391702,2.01726781 89.3207775,2.1319322 89.3971757,2.36216386 L91.2636015,8.56938978 C91.2715967,8.5982816 91.2813685,8.62717341 91.2813685,8.65606523 C91.2813685,8.89532557 90.9331349,9.07770516 90.6497508,9.07770516 C90.490736,9.07770516 90.3574833,9.01992153 90.3104007,8.86643376 L89.9248563,7.50580983 L87.5964879,7.50580983 L87.2091668,8.86643376 C87.1629725,9.01992153 87.0314966,9.07770516 86.8618215,9.07770516 C86.5882093,9.07770516 86.238199,8.90435426 86.238199,8.65606523 L86.238199,8.65606523 Z" id="Fill-39" fill="#FFFFFF"></path><path d="M97.846374,2.52474521 C97.8374889,2.4958497 97.8374889,2.46695419 97.8374889,2.43805868 C97.8374889,2.1888349 98.1857839,2.01726781 98.4594443,2.01726781 C98.6291492,2.01726781 98.7606484,2.07415585 98.8086278,2.22766325 L100.363516,7.68891469 L101.90952,2.22766325 C101.95661,2.07415585 102.08811,2.01726781 102.248929,2.01726781 C102.531475,2.01726781 102.880658,2.19876774 102.880658,2.43805868 C102.880658,2.46695419 102.870885,2.4958497 102.862888,2.52474521 L100.995245,8.732765 C100.929496,8.9630261 100.646062,9.07770516 100.363516,9.07770516 C100.080971,9.07770516 99.8073104,8.9630261 99.7317873,8.732765 L97.846374,2.52474521 Z" id="Fill-41" fill="#FFFFFF"></path><path d="M105.90656,2.3449828 C105.90656,2.11285135 106.163874,2.01726781 106.410429,2.01726781 C106.667743,2.01726781 106.915194,2.11285135 106.915194,2.3449828 L106.915194,8.73906634 C106.915194,8.96209459 106.667743,9.07770516 106.410429,9.07770516 C106.163874,9.07770516 105.90656,8.96209459 105.90656,8.73906634 L105.90656,2.3449828 Z" id="Fill-43" fill="#FFFFFF"></path><path d="M111.397953,2.92485626 L111.397953,8.1701167 L112.458024,8.1701167 C113.131999,8.1701167 113.527408,7.77321744 113.527408,6.92388943 L113.527408,4.17108354 C113.527408,3.32175553 113.131999,2.92485626 112.458024,2.92485626 L111.397953,2.92485626 Z M112.458024,2.01726781 C113.600225,2.01726781 114.479948,2.60533415 114.479948,4.17108354 L114.479948,6.92388943 C114.479948,8.48781818 113.600225,9.07770516 112.458024,9.07770516 L110.867917,9.07770516 C110.616447,9.07770516 110.445413,8.92295086 110.445413,8.74907985 L110.445413,2.3449828 C110.445413,2.17202211 110.616447,2.01726781 110.867917,2.01726781 L112.458024,2.01726781 Z" id="Fill-45" fill="#FFFFFF"></path><path d="M120.965978,6.69232466 L120.022549,3.40588068 L119.080897,6.69232466 L120.965978,6.69232466 Z M117.50585,8.65606523 C117.50585,8.62717341 117.50585,8.5982816 117.515622,8.56938978 L119.392708,2.36216386 C119.467329,2.1319322 119.740053,2.01726781 120.022549,2.01726781 C120.306821,2.01726781 120.588429,2.1319322 120.663938,2.36216386 L122.531253,8.56938978 C122.539248,8.5982816 122.54902,8.62717341 122.54902,8.65606523 C122.54902,8.89532557 122.200786,9.07770516 121.917402,9.07770516 C121.758387,9.07770516 121.625134,9.01992153 121.578052,8.86643376 L121.192507,7.50580983 L118.864139,7.50580983 L118.476818,8.86643376 C118.430624,9.01992153 118.299148,9.07770516 118.129473,9.07770516 C117.85586,9.07770516 117.50585,8.90435426 117.50585,8.65606523 L117.50585,8.65606523 Z" id="Fill-47" fill="#FFFFFF"></path></g></g></svg> 