<?xml version="1.0" encoding="UTF-8"?> <svg xmlns="http://www.w3.org/2000/svg" xmlns:xlink="http://www.w3.org/1999/xlink" width="110px" height="90px" viewBox="0 0 110 90" version="1.1"><title>Logo-azul1</title><defs><polygon id="path-1" points="0 3.35842465e-16 40.1348365 3.35842465e-16 40.1348365 28.3953506 0 28.3953506"></polygon><polygon id="path-3" points="3.05311332e-17 0 1.7672428 0 1.7672428 8.32785244 3.05311332e-17 8.32785244"></polygon></defs><g id="Page-1" stroke="none" stroke-width="1" fill="none" fill-rule="evenodd"><g id="Logo-azul1"><g id="Fill-1-Clipped" transform="translate(0.000000, 20.631504)"><mask id="mask-2" fill="white"><use xlink:href="#path-1"></use></mask><g id="path-1"></g><path d="M31.0368682,26.8460366 C30.5762621,27.9933235 29.0786936,28.3953506 27.5819233,28.3953506 C25.8544509,28.3953506 24.2427287,27.8225017 23.8962762,26.8460366 L20.0964755,16.8644818 L16.2958765,26.8460366 C15.9510207,27.8225017 14.2802259,28.3953506 12.5527535,28.3953506 C11.1134592,28.3953506 9.61668895,27.9933235 9.1552846,26.8460366 L0.28801851,4.76155843 C0.0573163217,4.18712044 -0.000159655493,3.90029873 -0.000159655493,3.55706608 C-0.000159655493,1.49131406 3.56973717,3.35842465e-16 5.87436421,3.35842465e-16 C7.02468206,3.35842465e-16 8.00337021,0.401232607 8.34902436,1.37610866 L13.474764,15.9468111 L17.1596127,3.613477 C17.6194206,2.0649575 18.7721333,1.89334118 20.0964755,1.89334118 C21.3633419,1.89334118 22.5719339,2.0649575 23.0341366,3.613477 L26.7181871,15.9468111 L31.8431285,1.37610866 C32.1305084,0.516438005 33.0517206,3.35842465e-16 34.2619092,3.35842465e-16 C36.4499877,3.35842465e-16 40.1348365,1.49131406 40.1348365,3.67147697 C40.1348365,4.01550413 40.0773605,4.41673673 39.9041343,4.76155843 L31.0368682,26.8460366 Z" id="Fill-1" fill="#061D3F" fill-rule="nonzero" mask="url(#mask-2)"></path></g><path d="M56.4653513,31.7305707 C57.2772299,31.7305707 57.6831695,31.4415479 57.6831695,30.3400501 C57.6831695,28.0214452 55.5955961,26.8621428 53.4501466,26.8621428 C51.3625732,26.8621428 49.2758042,28.0214452 49.2758042,30.3400501 L49.2758042,31.7305707 L56.4653513,31.7305707 Z M66.090535,31.3829405 C66.090535,36.5419969 63.1332064,36.7732152 60.4668686,36.7732152 L49.2758042,36.7732152 L49.2758042,37.122451 C49.2758042,39.9629025 51.6527598,41.8752698 55.1896571,41.8752698 C58.7844307,41.8752698 60.523941,39.7308814 62.4370813,39.7308814 C64.5246542,39.7308814 65.743276,42.2807045 65.743276,43.672028 C65.743276,45.8742209 61.5094491,48.8888888 54.9573473,48.8888888 C46.376352,48.8888888 40.2880658,43.9618536 40.2880658,36.5998015 L40.2880658,32.3688293 C40.2880658,25.876254 46.2019188,20.3703703 53.6237759,20.3703703 C60.2916314,20.3703703 66.090535,24.8325607 66.090535,31.3829405 L66.090535,31.3829405 Z" id="Fill-4" fill="#061D3F" fill-rule="nonzero"></path><path d="M81.812021,40.3099714 C81.812021,36.3111328 68.2594649,39.0342928 68.2594649,29.2961055 C68.2594649,25.0066467 70.9234097,20.3703703 79.1480767,20.3703703 C84.1869298,20.3703703 88.9921461,22.109275 88.9921461,24.5434205 C88.9921461,25.7034931 87.8352007,28.7750763 85.7493274,28.7750763 C84.1869298,28.7750763 82.3908948,27.0361717 79.2628881,27.0361717 C76.9457865,27.0361717 75.9630652,28.0212298 75.9630652,28.8906822 C75.9630652,32.136477 89.6296296,29.7601345 89.6296296,39.9623509 C89.6296296,45.4110796 85.6923232,48.8888888 78.4519824,48.8888888 C72.370996,48.8888888 67.4485598,46.3961379 67.4485598,43.5557662 C67.4485598,42.1652846 68.6079136,39.6139278 70.4031449,39.6139278 C72.2561846,39.6139278 73.5881564,42.2230876 78.2199512,42.2230876 C81.2909537,42.2230876 81.812021,41.1216207 81.812021,40.3099714" id="Fill-6" fill="#061D3F" fill-rule="nonzero"></path><path d="M101.288807,38.6756148 C101.288807,40.3507804 101.866248,40.9283685 103.654554,40.9283685 L106.135468,40.9283685 C108.73155,40.9283685 109.941616,42.8339293 109.941616,44.6826912 C109.941616,46.589052 108.73155,48.4362142 106.135468,48.4362142 L103.654554,48.4362142 C96.3269791,48.4362142 92.3456787,45.4914746 92.3456787,38.6756148 L92.3456787,16.747266 C92.3456787,15.1296993 94.7114251,14.0329218 96.7892508,14.0329218 C99.0390291,14.0329218 101.288807,15.1296993 101.288807,16.747266 L101.288807,20.9431796 L107.807006,20.9431796 C109.250607,20.9431796 110,22.5607463 110,24.1207143 C110,25.737481 109.250607,27.2966489 107.807006,27.2966489 L101.288807,27.2966489 L101.288807,38.6756148 Z" id="Fill-8" fill="#061D3F" fill-rule="nonzero"></path><path d="M30.3292182,86.4208642 C42.923001,87.0467488 52.2044024,80.4621559 61.2340889,73.3037019 C66.2860319,69.2994819 71.2369675,65.1616009 77.0023705,62.0970075 C85.2488533,57.7126143 93.9017684,56.8242109 103.662551,59.3093402 C91.3974413,60.4418551 82.9874238,67.4098227 74.3785994,74.0176261 C69.4893898,77.7713327 64.7717312,81.7867578 59.3430173,84.7977267 C50.0038977,89.9784815 40.3489312,91.6984629 30.3292182,86.4208642" id="Fill-10" fill="#0078BB" fill-rule="nonzero"></path><path d="M17.654321,72.2329817 C26.9286164,74.3407181 35.107201,71.4062299 43.1247929,67.5865074 C47.7118809,65.401864 52.230086,63.0417755 57.1848139,61.6790768 C61.1239266,60.5959678 65.0702481,60.1393315 69.2592593,61.5028315 C66.4679196,63.3125526 63.8351703,64.9724658 61.2560845,66.7044785 C57.1271448,69.4739375 53.0823058,72.3627624 48.911716,75.0681321 C45.3378407,77.3865625 41.5260803,79.2443509 37.3274572,80.3546975 C30.2325691,82.2325141 24.4696746,80.099943 19.628683,75.0440982 C18.8950053,74.2782315 17.9715005,73.5724478 17.654321,72.2329817" id="Fill-12" fill="#259F97" fill-rule="nonzero"></path><path d="M46.1728397,61.8263217 C38.5836252,65.6499432 30.6586682,68.0511139 21.9492512,66.5366141 C15.419774,65.4013288 11.4998601,60.7099191 11.3168724,53.868313 C21.9802795,60.5596491 33.9540373,61.4982462 46.1728397,61.8263217" id="Fill-14" fill="#95BA15" fill-rule="nonzero"></path><path d="M3.21889479,3.73355203 C3.21889479,2.97448855 2.85553863,2.62096327 2.25881353,2.62096327 C1.65372668,2.62096327 1.30709401,2.97448855 1.30709401,3.73355203 L1.30709401,6.24236245 C1.30709401,6.86407931 1.5412231,7.20785219 1.97679441,7.30375102 L1.97679441,6.77712024 C1.97679441,6.56988123 2.11362309,6.48454757 2.25881353,6.48454757 C2.40400396,6.48454757 2.54919441,6.56988123 2.54919441,6.77712024 L2.54919441,7.29481126 C2.96880237,7.19972517 3.21889479,6.86407931 3.21889479,6.24236245 L3.21889479,3.73355203 Z M1.97679441,8.75198555 L1.97679441,8.14896088 C1.09729003,8.06200175 0.452674895,7.51830426 0.452674895,6.24236245 L0.452674895,3.73355203 C0.452674895,2.32839062 1.23487888,1.81069959 2.25881353,1.81069959 C3.27514659,1.81069959 4.07407408,2.32839062 4.07407408,3.73355203 L4.07407408,6.24236245 C4.07407408,7.51017724 3.42033702,8.06200175 2.54919441,8.14896088 L2.54919441,8.75198555 C2.54919441,8.95028481 2.40400397,9.05349797 2.25881353,9.05349797 C2.11362309,9.05349797 1.97679441,8.95028481 1.97679441,8.75198555 L1.97679441,8.75198555 Z" id="Fill-16" fill="#061D3F" fill-rule="nonzero"></path><path d="M10.0240091,2.10248645 C10.0240091,1.89580409 10.2301352,1.81069959 10.4437299,1.81069959 C10.6498561,1.81069959 10.8641975,1.89580409 10.8641975,2.10248645 L10.8641975,6.23046006 C10.8641975,7.62374234 10.0718064,8.14814814 9.04939035,8.14814814 C8.03518947,8.14814814 7.24279831,7.62374234 7.24279831,6.23046006 L7.24279831,2.10248645 C7.24279831,1.89580409 7.44892462,1.81069959 7.66251915,1.81069959 C7.86864545,1.81069959 8.08223999,1.89580409 8.08223999,2.10248645 L8.08223999,6.23046006 C8.08223999,6.98748484 8.44744197,7.34006064 9.04939035,7.34006064 C9.65955392,7.34006064 10.0240091,6.98748484 10.0240091,6.23046006 L10.0240091,2.10248645 Z" id="Fill-18" fill="#061D3F" fill-rule="nonzero"></path><g id="Fill-20-Clipped" transform="translate(14.147267, 0.000000)"><mask id="mask-4" fill="white"><use xlink:href="#path-3"></use></mask><g id="path-3"></g><path d="M0.326831277,2.25582778 C0.326831277,2.04647593 0.586666666,1.96027222 0.835637861,1.96027222 C1.09547325,1.96027222 1.34534979,2.04647593 1.34534979,2.25582778 L1.34534979,8.02244509 C1.34534979,8.22358702 1.09547325,8.32785244 0.835637861,8.32785244 C0.586666666,8.32785244 0.326831277,8.22358702 0.326831277,8.02244509 L0.326831277,2.25582778 Z M0.451769547,1.1236858 C0.413744856,1.14092654 0.374814817,1.14913642 0.335884775,1.14913642 C0.143950618,1.14913642 3.05311332e-17,0.957846296 3.05311332e-17,0.792827777 C3.05311332e-17,0.696772219 0.0389300412,0.618778391 0.143950618,0.565414201 L1.3344856,0.0169944444 C1.37251029,0.00878456788 1.41144033,-0.000246296296 1.43950617,-0.000246296296 C1.63234568,-0.000246296296 1.7672428,0.191043827 1.7672428,0.356883333 C1.7672428,0.452938891 1.72921811,0.548994446 1.61423868,0.592506788 L0.451769547,1.1236858 Z" id="Fill-20" fill="#061D3F" fill-rule="nonzero" mask="url(#mask-4)"></path></g><path d="M21.129696,5.83329615 C21.0397758,5.98936283 20.9244936,6.04165738 20.811517,6.04165738 C20.7046888,6.04165738 20.5909437,5.98936283 20.5171631,5.83329615 L19.4242875,3.63120441 L19.4242875,7.84500304 C19.4242875,8.04437612 19.2129368,8.14814814 18.993132,8.14814814 C18.7802441,8.14814814 18.5596708,8.04437612 18.5596708,7.84500304 L18.5596708,2.27072841 C18.5596708,1.93244789 18.7725586,1.81069959 18.993132,1.81069959 C19.3028569,1.81069959 19.4742431,1.92345976 19.6771399,2.33119401 L20.8199711,4.62806969 L21.9781733,2.33119401 C22.18107,1.92345976 22.3447707,1.81069959 22.6537271,1.81069959 C22.8819859,1.81069959 23.0864197,1.93244789 23.0864197,2.27072841 L23.0864197,7.84500304 C23.0864197,8.04437612 22.875069,8.14814814 22.6537271,8.14814814 C22.4423763,8.14814814 22.221803,8.04437612 22.221803,7.84500304 L22.221803,3.68349898 L21.129696,5.83329615 Z" id="Fill-23" fill="#061D3F" fill-rule="nonzero"></path><path d="M26.255144,2.10485656 C26.255144,1.89649538 26.4853041,1.81069959 26.7074166,1.81069959 C26.9383814,1.81069959 27.1604939,1.89649538 27.1604939,2.10485656 L27.1604939,7.84418591 C27.1604939,8.04437612 26.9383814,8.14814814 26.7074166,8.14814814 C26.4853041,8.14814814 26.255144,8.04437612 26.255144,7.84418591 L26.255144,2.10485656 Z" id="Fill-25" fill="#061D3F" fill-rule="nonzero"></path><path d="M32.152463,2.61878709 C31.5312824,2.61878709 31.1845769,2.97217341 31.1845769,3.72838769 L31.1845769,6.23046006 C31.1845769,6.98829538 31.5312824,7.34006064 32.1684296,7.34006064 C32.991855,7.34006064 33.0633251,6.74676068 33.0952585,6.36824831 C33.1119854,6.14535554 33.2807763,6.06754571 33.5157149,6.06754571 C33.8145202,6.06754571 33.9506173,6.1615659 33.9506173,6.54088886 C33.9506173,7.48676461 33.2161492,8.14814814 32.1114058,8.14814814 C31.1351562,8.14814814 30.3292182,7.62374234 30.3292182,6.23046006 L30.3292182,3.72838769 C30.3292182,2.3342949 31.1435197,1.81069959 32.1205296,1.81069959 C33.2245127,1.81069959 33.9506173,2.45587277 33.9506173,3.36689619 C33.9506173,3.75351379 33.8145202,3.84023933 33.5240784,3.84023933 C33.2655699,3.84023933 33.1043823,3.7454086 33.0952585,3.53953675 C33.0800521,3.23802366 32.9834916,2.61878709 32.152463,2.61878709" id="Fill-27" fill="#061D3F" fill-rule="nonzero"></path><path d="M39.7732747,6.00703059 L38.9264529,3.0571185 L38.0804285,6.00703059 L39.7732747,6.00703059 Z M36.6666666,7.76968417 C36.6666666,7.74375085 36.6666666,7.71781758 36.6754379,7.69188431 L38.3603103,2.12027828 C38.4280879,1.91362235 38.6728848,1.81069959 38.9264529,1.81069959 C39.1808184,1.81069959 39.4335891,1.91362235 39.5013668,2.12027828 L41.1774679,7.69188431 C41.1854418,7.71781758 41.1934157,7.74375085 41.1934157,7.76968417 C41.1934157,7.98444427 40.8816385,8.14814814 40.6264756,8.14814814 C40.4837439,8.14814814 40.3641363,8.09628155 40.3218749,7.95851095 L39.9758103,6.73721493 L37.8866642,6.73721493 L37.5390047,7.95851095 C37.4975408,8.09628155 37.3787306,8.14814814 37.2264302,8.14814814 C36.9816334,8.14814814 36.6666666,7.99254841 36.6666666,7.76968417 L36.6666666,7.76968417 Z" id="Fill-29" fill="#061D3F" fill-rule="nonzero"></path><path d="M48.8273821,2.62535098 L48.8273821,4.97533837 L49.8144909,4.97533837 C50.4040561,4.97533837 50.7618452,4.61091057 50.7618452,3.84773663 L50.7618452,3.74396458 C50.7618452,2.98160776 50.4040561,2.62535098 49.8144909,2.62535098 L48.8273821,2.62535098 Z M47.9835391,2.10485656 C47.9835391,1.94960705 48.1110533,1.81069959 48.311325,1.81069959 L49.861746,1.81069959 C50.8421043,1.81069959 51.6049384,2.32220588 51.6049384,3.7178173 L51.6049384,3.78727103 C51.6049384,5.17389431 50.8173516,5.70337685 49.8144909,5.70337685 L48.8273821,5.70337685 L48.8273821,7.84500304 C48.8273821,8.04437612 48.6211092,8.14814814 48.4058357,8.14814814 C48.1988126,8.14814814 47.9835391,8.04437612 47.9835391,7.84500304 L47.9835391,2.10485656 Z" id="Fill-31" fill="#061D3F" fill-rule="nonzero"></path><path d="M57.0873869,3.72838769 C57.0873869,2.97136289 56.7233469,2.61878709 56.126747,2.61878709 C55.5225473,2.61878709 55.1752272,2.97136289 55.1752272,3.72838769 L55.1752272,6.23046006 C55.1752272,6.98748484 55.5225473,7.34006064 56.126747,7.34006064 C56.7233469,7.34006064 57.0873869,6.98748484 57.0873869,6.23046006 L57.0873869,3.72838769 Z M54.3209876,6.23046006 L54.3209876,3.72838769 C54.3209876,2.3342949 55.1037877,1.81069959 56.126747,1.81069959 C57.1428671,1.81069959 57.9423867,2.3342949 57.9423867,3.72838769 L57.9423867,6.23046006 C57.9423867,7.62374234 57.1428671,8.14814814 56.126747,8.14814814 C55.1037877,8.14814814 54.3209876,7.62374234 54.3209876,6.23046006 L54.3209876,6.23046006 Z" id="Fill-33" fill="#061D3F" fill-rule="nonzero"></path><path d="M61.9412013,2.62200368 L61.9412013,4.67671059 L62.8890246,4.67671059 C63.4821589,4.67671059 63.8703791,4.40085096 63.8703791,3.64976401 C63.8703791,2.89867708 63.4821589,2.62200368 62.8890246,2.62200368 L61.9412013,2.62200368 Z M61.111111,2.1036479 C61.111111,1.94903629 61.2206474,1.81069959 61.3875598,1.81069959 L62.8890246,1.81069959 C63.8852819,1.81069959 64.7079208,2.23303341 64.7079208,3.57164446 C64.7079208,4.59940479 64.2250675,5.10880938 63.5931857,5.28213712 L64.6997241,7.55248659 C64.7235683,7.59480133 64.7325107,7.64688105 64.7325107,7.68187211 C64.7325107,7.91460323 64.4627682,8.14814814 64.2250675,8.14814814 C64.0834898,8.14814814 63.9732088,8.04398875 63.8942233,7.8804259 L62.7385055,5.41070891 L61.9412013,5.41070891 L61.9412013,7.82020877 C61.9412013,8.01876267 61.7355414,8.12210828 61.5224308,8.12210828 C61.3160257,8.12210828 61.111111,8.01876267 61.111111,7.82020877 L61.111111,2.1036479 Z" id="Fill-35" fill="#061D3F" fill-rule="nonzero"></path><path d="M71.9504456,8.14814814 C71.7412553,8.14814814 71.5226336,8.04437612 71.5226336,7.84500304 L71.5226336,2.10485656 C71.5226336,1.89731248 71.7686899,1.81069959 72.0053153,1.81069959 C72.2505146,1.81069959 72.48714,1.89731248 72.48714,2.10485656 L72.48714,7.33349677 L74.8525377,7.33349677 C75.0437243,7.33349677 75.1440327,7.53286985 75.1440327,7.74041389 C75.1440327,7.93978696 75.0437243,8.14814814 74.8525377,8.14814814 L71.9504456,8.14814814 Z" id="Fill-37" fill="#061D3F" fill-rule="nonzero"></path><path d="M80.5132185,6.00703059 L79.6663967,3.0571185 L78.8211693,6.00703059 L80.5132185,6.00703059 Z M77.4074076,7.76968417 C77.4074076,7.74375085 77.4074076,7.71781758 77.4161789,7.69188431 L79.1010512,2.12027828 C79.1680312,1.91362235 79.4136255,1.81069959 79.6663967,1.81069959 C79.9215593,1.81069959 80.17433,1.91362235 80.2429045,2.12027828 L81.9182089,7.69188431 C81.9253853,7.71781758 81.9341567,7.74375085 81.9341567,7.76968417 C81.9341567,7.98444427 81.6215818,8.14814814 81.3672167,8.14814814 C81.2244845,8.14814814 81.1048772,8.09628155 81.0626157,7.95851095 L80.7165513,6.73721493 L78.6266074,6.73721493 L78.278948,7.95851095 C78.237484,8.09628155 78.1194711,8.14814814 77.9671711,8.14814814 C77.7215769,8.14814814 77.4074076,7.99254841 77.4074076,7.76968417 L77.4074076,7.76968417 Z" id="Fill-39" fill="#061D3F" fill-rule="nonzero"></path><path d="M87.8269051,2.2662113 C87.8189301,2.24027469 87.8189301,2.21433808 87.8189301,2.18840147 C87.8189301,1.96469821 88.1315594,1.81069959 88.3771971,1.81069959 C88.529524,1.81069959 88.6475579,1.86176229 88.6906245,1.99955053 L90.0862919,6.90156984 L91.4739848,1.99955053 C91.5162534,1.86176229 91.6342872,1.81069959 91.7786391,1.81069959 C92.0322518,1.81069959 92.3456787,1.97361392 92.3456787,2.18840147 C92.3456787,2.21433808 92.3369062,2.24027469 92.3297287,2.2662113 L90.653332,7.83852987 C90.5943153,8.04521223 90.3399051,8.14814814 90.0862919,8.14814814 C89.8326792,8.14814814 89.5870415,8.04521223 89.5192523,7.83852987 L87.8269051,2.2662113 Z" id="Fill-41" fill="#061D3F" fill-rule="nonzero"></path><path d="M95.0617283,2.10485656 C95.0617283,1.89649538 95.2926931,1.81069959 95.514001,1.81069959 C95.7449658,1.81069959 95.9670783,1.89649538 95.9670783,2.10485656 L95.9670783,7.84418591 C95.9670783,8.04437612 95.7449658,8.14814814 95.514001,8.14814814 C95.2926931,8.14814814 95.0617283,8.04437612 95.0617283,7.84418591 L95.0617283,2.10485656 Z" id="Fill-43" fill="#061D3F" fill-rule="nonzero"></path><path d="M99.9908019,2.62535098 L99.9908019,7.33349677 L100.942322,7.33349677 C101.547282,7.33349677 101.902202,6.97723999 101.902202,6.21488312 L101.902202,3.74396458 C101.902202,2.98160776 101.547282,2.62535098 100.942322,2.62535098 L99.9908019,2.62535098 Z M100.942322,1.81069959 C101.967562,1.81069959 102.757202,2.33854794 102.757202,3.74396458 L102.757202,6.21488313 C102.757202,7.61866561 101.967562,8.14814814 100.942322,8.14814814 L99.5150426,8.14814814 C99.2893226,8.14814814 99.1358027,8.00924069 99.1358027,7.85317407 L99.1358027,2.10485656 C99.1358027,1.94960705 99.2893226,1.81069959 99.5150426,1.81069959 L100.942322,1.81069959 Z" id="Fill-45" fill="#061D3F" fill-rule="nonzero"></path><path d="M108.579062,6.00703059 L107.73224,3.0571185 L106.887013,6.00703059 L108.579062,6.00703059 Z M105.473251,7.76968417 C105.473251,7.74375085 105.473251,7.71781758 105.482022,7.69188431 L107.166894,2.12027828 C107.233875,1.91362235 107.478672,1.81069959 107.73224,1.81069959 C107.987403,1.81069959 108.240173,1.91362235 108.307951,2.12027828 L109.984052,7.69188431 C109.991229,7.71781758 110,7.74375085 110,7.76968417 C110,7.98444427 109.687425,8.14814814 109.43306,8.14814814 C109.290328,8.14814814 109.17072,8.09628155 109.12846,7.95851095 L108.782395,6.73721493 L106.692451,6.73721493 L106.344792,7.95851095 C106.303328,8.09628155 106.185315,8.14814814 106.033014,8.14814814 C105.78742,8.14814814 105.473251,7.99254841 105.473251,7.76968417 L105.473251,7.76968417 Z" id="Fill-47" fill="#061D3F" fill-rule="nonzero"></path></g></g></svg> 